<?xml version='1.0' encoding='utf-8'?>
<svg xmlns="http://www.w3.org/2000/svg" width="4500" height="1080" viewBox="0 0 4500 1080"><rect width="4500" height="1080" fill="transparent" /><g fill="#fff"><rect x="3407" y="905" width="1" height="1" /><rect x="1729" y="729" width="1" height="1" /><rect x="1857" y="198" width="1" height="1" /><rect x="1481" y="159" width="1" height="1" /><rect x="1564" y="462" width="1" height="1" /><rect x="2649" y="3" width="1" height="1" /><rect x="3779" y="243" width="1" height="1" /><rect x="705" y="370" width="1" height="1" /><rect x="4131" y="17" width="1" height="1" /><rect x="2451" y="539" width="1" height="1" /><rect x="1093" y="395" width="1" height="1" /><rect x="2640" y="812" width="1" height="1" /><rect x="3716" y="320" width="1" height="1" /><rect x="865" y="1050" width="1" height="1" /><rect x="2291" y="528" width="1" height="1" /><rect x="2013" y="67" width="1" height="1" /><rect x="737" y="569" width="1" height="1" /><rect x="1458" y="238" width="1" height="1" /><rect x="1109" y="371" width="1" height="1" /><rect x="2418" y="675" width="1" height="1" /><rect x="4023" y="510" width="1" height="1" /><rect x="469" y="182" width="1" height="1" /><rect x="1737" y="530" width="1" height="1" /><rect x="1906" y="628" width="1" height="1" /><rect x="900" y="46" width="1" height="1" /><rect x="2196" y="363" width="1" height="1" /><rect x="310" y="804" width="1" height="1" /><rect x="956" y="632" width="1" height="1" /><rect x="2014" y="988" width="1" height="1" /><rect x="3447" y="172" width="1" height="1" /><rect x="2713" y="712" width="1" height="1" /><rect x="2028" y="458" width="1" height="1" /><rect x="3325" y="112" width="1" height="1" /><rect x="3953" y="694" width="1" height="1" /><rect x="1099" y="285" width="1" height="1" /><rect x="2266" y="30" width="1" height="1" /><rect x="365" y="158" width="1" height="1" /><rect x="1873" y="860" width="1" height="1" /><rect x="4369" y="663" width="1" height="1" /><rect x="4495" y="1070" width="1" height="1" /><rect x="4027" y="153" width="1" height="1" /><rect x="1965" y="832" width="1" height="1" /><rect x="314" y="627" width="1" height="1" /><rect x="995" y="995" width="1" height="1" /><rect x="3253" y="467" width="1" height="1" /><rect x="305" y="1024" width="1" height="1" /><rect x="1025" y="798" width="1" height="1" /><rect x="1143" y="135" width="1" height="1" /><rect x="2022" y="342" width="1" height="1" /><rect x="630" y="285" width="1" height="1" /><rect x="4169" y="735" width="1" height="1" /><rect x="2319" y="310" width="1" height="1" /><rect x="1508" y="911" width="1" height="1" /><rect x="1883" y="987" width="1" height="1" /><rect x="3090" y="805" width="1" height="1" /><rect x="3461" y="227" width="1" height="1" /><rect x="3881" y="296" width="1" height="1" /><rect x="2536" y="511" width="1" height="1" /><rect x="3696" y="527" width="1" height="1" /><rect x="1312" y="503" width="1" height="1" /><rect x="446" y="523" width="1" height="1" /><rect x="2487" y="25" width="1" height="1" /><rect x="3784" y="603" width="1" height="1" /><rect x="1888" y="108" width="1" height="1" /><rect x="3878" y="425" width="1" height="1" /><rect x="4318" y="614" width="1" height="1" /><rect x="1107" y="383" width="1" height="1" /><rect x="2661" y="342" width="1" height="1" /><rect x="4111" y="752" width="1" height="1" /><rect x="243" y="357" width="1" height="1" /><rect x="4041" y="355" width="1" height="1" /><rect x="2835" y="149" width="1" height="1" /><rect x="4109" y="204" width="1" height="1" /><rect x="4051" y="129" width="1" height="1" /><rect x="2972" y="287" width="1" height="1" /><rect x="4311" y="164" width="1" height="1" /><rect x="2616" y="956" width="1" height="1" /><rect x="1923" y="105" width="1" height="1" /><rect x="1790" y="322" width="1" height="1" /><rect x="742" y="1" width="1" height="1" /><rect x="2390" y="439" width="1" height="1" /><rect x="496" y="42" width="1" height="1" /><rect x="1067" y="1071" width="1" height="1" /><rect x="3780" y="1030" width="1" height="1" /><rect x="4110" y="275" width="1" height="1" /><rect x="1685" y="1052" width="1" height="1" /><rect x="3845" y="846" width="1" height="1" /><rect x="2796" y="841" width="1" height="1" /><rect x="2890" y="258" width="1" height="1" /><rect x="84" y="681" width="1" height="1" /><rect x="3693" y="831" width="1" height="1" /><rect x="2732" y="931" width="1" height="1" /><rect x="3667" y="694" width="1" height="1" /><rect x="1271" y="806" width="1" height="1" /><rect x="4443" y="867" width="1" height="1" /><rect x="814" y="976" width="1" height="1" /><rect x="3406" y="483" width="1" height="1" /><rect x="721" y="677" width="1" height="1" /><rect x="3834" y="1042" width="1" height="1" /><rect x="6" y="444" width="1" height="1" /><rect x="3396" y="895" width="1" height="1" /><rect x="71" y="637" width="1" height="1" /><rect x="1198" y="354" width="1" height="1" /><rect x="3856" y="581" width="1" height="1" /><rect x="1065" y="812" width="1" height="1" /><rect x="3781" y="261" width="1" height="1" /><rect x="300" y="353" width="1" height="1" /><rect x="3319" y="423" width="1" height="1" /><rect x="2756" y="416" width="1" height="1" /><rect x="576" y="547" width="1" height="1" /><rect x="2554" y="523" width="1" height="1" /><rect x="4140" y="171" width="1" height="1" /><rect x="932" y="757" width="1" height="1" /><rect x="2654" y="280" width="1" height="1" /><rect x="607" y="851" width="1" height="1" /><rect x="979" y="971" width="1" height="1" /><rect x="1717" y="11" width="1" height="1" /><rect x="1683" y="624" width="1" height="1" /><rect x="347" y="838" width="1" height="1" /><rect x="2249" y="711" width="1" height="1" /><rect x="2869" y="289" width="1" height="1" /><rect x="2718" y="788" width="1" height="1" /><rect x="891" y="564" width="1" height="1" /><rect x="2167" y="919" width="1" height="1" /><rect x="402" y="265" width="1" height="1" /><rect x="3743" y="255" width="1" height="1" /><rect x="3010" y="277" width="1" height="1" /><rect x="3909" y="363" width="1" height="1" /><rect x="112" y="603" width="1" height="1" /><rect x="2560" y="183" width="1" height="1" /><rect x="650" y="436" width="1" height="1" /><rect x="3145" y="212" width="1" height="1" /><rect x="650" y="333" width="1" height="1" /><rect x="367" y="995" width="1" height="1" /><rect x="2151" y="359" width="1" height="1" /><rect x="4122" y="344" width="1" height="1" /><rect x="702" y="445" width="1" height="1" /><rect x="357" y="37" width="1" height="1" /><rect x="4001" y="451" width="1" height="1" /><rect x="3520" y="903" width="1" height="1" /><rect x="606" y="149" width="1" height="1" /><rect x="3687" y="656" width="1" height="1" /><rect x="1660" y="778" width="1" height="1" /><rect x="1439" y="865" width="1" height="1" /><rect x="556" y="43" width="1" height="1" /><rect x="2627" y="983" width="1" height="1" /><rect x="3328" y="825" width="1" height="1" /><rect x="2922" y="154" width="1" height="1" /><rect x="4279" y="998" width="1" height="1" /><rect x="4018" y="632" width="1" height="1" /><rect x="3235" y="969" width="1" height="1" /><rect x="3458" y="286" width="1" height="1" /><rect x="3601" y="838" width="1" height="1" /><rect x="3786" y="48" width="1" height="1" /><rect x="562" y="955" width="1" height="1" /><rect x="2532" y="623" width="1" height="1" /><rect x="4267" y="435" width="1" height="1" /><rect x="3137" y="1068" width="1" height="1" /><rect x="3121" y="591" width="1" height="1" /><rect x="54" y="814" width="1" height="1" /><rect x="1382" y="760" width="1" height="1" /><rect x="1961" y="1048" width="1" height="1" /><rect x="2169" y="731" width="1" height="1" /><rect x="1590" y="201" width="1" height="1" /><rect x="4094" y="166" width="1" height="1" /><rect x="4270" y="504" width="1" height="1" /><rect x="248" y="263" width="1" height="1" /><rect x="127" y="637" width="1" height="1" /><rect x="435" y="932" width="1" height="1" /><rect x="895" y="710" width="1" height="1" /><rect x="3054" y="453" width="1" height="1" /><rect x="3096" y="462" width="1" height="1" /><rect x="4042" y="969" width="1" height="1" /><rect x="4012" y="976" width="1" height="1" /><rect x="2513" y="101" width="1" height="1" /><rect x="2943" y="642" width="1" height="1" /><rect x="2954" y="922" width="1" height="1" /><rect x="3548" y="243" width="1" height="1" /><rect x="3283" y="156" width="1" height="1" /><rect x="3357" y="511" width="1" height="1" /><rect x="1656" y="608" width="1" height="1" /><rect x="1241" y="894" width="1" height="1" /><rect x="3126" y="413" width="1" height="1" /><rect x="788" y="16" width="1" height="1" /><rect x="1128" y="748" width="1" height="1" /><rect x="54" y="550" width="1" height="1" /><rect x="3604" y="391" width="1" height="1" /><rect x="995" y="699" width="1" height="1" /><rect x="2163" y="1002" width="1" height="1" /><rect x="3431" y="83" width="1" height="1" /><rect x="652" y="1012" width="1" height="1" /><rect x="1263" y="820" width="1" height="1" /><rect x="178" y="1071" width="1" height="1" /><rect x="1605" y="160" width="1" height="1" /><rect x="431" y="444" width="1" height="1" /><rect x="1803" y="237" width="1" height="1" /><rect x="2537" y="209" width="1" height="1" /><rect x="4385" y="850" width="1" height="1" /><rect x="617" y="901" width="1" height="1" /><rect x="2410" y="1002" width="1" height="1" /><rect x="1044" y="6" width="1" height="1" /><rect x="2423" y="939" width="1" height="1" /><rect x="3403" y="552" width="1" height="1" /><rect x="3428" y="968" width="1" height="1" /><rect x="1591" y="177" width="1" height="1" /><rect x="4206" y="512" width="1" height="1" /><rect x="969" y="193" width="1" height="1" /><rect x="2078" y="235" width="1" height="1" /><rect x="3737" y="941" width="1" height="1" /><rect x="3363" y="119" width="1" height="1" /><rect x="4384" y="813" width="1" height="1" /><rect x="559" y="1038" width="1" height="1" /><rect x="32" y="728" width="1" height="1" /><rect x="3994" y="875" width="1" height="1" /><rect x="744" y="367" width="1" height="1" /><rect x="4047" y="752" width="1" height="1" /><rect x="2444" y="289" width="1" height="1" /><rect x="1882" y="320" width="1" height="1" /><rect x="3237" y="144" width="1" height="1" /><rect x="4144" y="615" width="1" height="1" /><rect x="2285" y="457" width="1" height="1" /><rect x="157" y="375" width="1" height="1" /><rect x="430" y="505" width="1" height="1" /><rect x="2333" y="795" width="1" height="1" /><rect x="2958" y="835" width="1" height="1" /><rect x="247" y="266" width="1" height="1" /><rect x="1922" y="610" width="1" height="1" /><rect x="49" y="1076" width="1" height="1" /><rect x="2476" y="450" width="1" height="1" /><rect x="1192" y="578" width="1" height="1" /><rect x="2883" y="590" width="1" height="1" /><rect x="1381" y="863" width="1" height="1" /><rect x="2961" y="866" width="1" height="1" /><rect x="1647" y="678" width="1" height="1" /><rect x="3309" y="332" width="1" height="1" /><rect x="2406" y="946" width="1" height="1" /><rect x="4055" y="210" width="1" height="1" /><rect x="4290" y="129" width="1" height="1" /><rect x="1882" y="301" width="1" height="1" /><rect x="3058" y="6" width="1" height="1" /><rect x="1482" y="1016" width="1" height="1" /><rect x="210" y="899" width="1" height="1" /><rect x="4499" y="425" width="1" height="1" /><rect x="2137" y="472" width="1" height="1" /><rect x="3686" y="443" width="1" height="1" /><rect x="3995" y="951" width="1" height="1" /><rect x="3989" y="731" width="1" height="1" /><rect x="2415" y="1056" width="1" height="1" /><rect x="2858" y="332" width="1" height="1" /><rect x="2461" y="648" width="1" height="1" /><rect x="1663" y="769" width="1" height="1" /><rect x="3962" y="531" width="1" height="1" /><rect x="3567" y="692" width="1" height="1" /><rect x="591" y="1015" width="1" height="1" /><rect x="1162" y="207" width="1" height="1" /><rect x="2387" y="399" width="1" height="1" /><rect x="1848" y="114" width="1" height="1" /><rect x="861" y="1052" width="1" height="1" /><rect x="599" y="201" width="1" height="1" /><rect x="2051" y="264" width="1" height="1" /><rect x="2154" y="949" width="1" height="1" /><rect x="3352" y="421" width="1" height="1" /><rect x="1285" y="160" width="1" height="1" /><rect x="1788" y="184" width="1" height="1" /><rect x="1452" y="211" width="1" height="1" /><rect x="532" y="328" width="1" height="1" /><rect x="3996" y="984" width="1" height="1" /><rect x="1481" y="933" width="1" height="1" /><rect x="3433" y="834" width="1" height="1" /><rect x="465" y="425" width="1" height="1" /><rect x="101" y="540" width="1" height="1" /><rect x="3287" y="177" width="1" height="1" /><rect x="2552" y="369" width="1" height="1" /><rect x="2992" y="70" width="1" height="1" /><rect x="3205" y="794" width="1" height="1" /><rect x="2765" y="746" width="1" height="1" /><rect x="2007" y="633" width="1" height="1" /><rect x="3665" y="91" width="1" height="1" /><rect x="4197" y="770" width="1" height="1" /><rect x="3734" y="300" width="1" height="1" /><rect x="1541" y="593" width="1" height="1" /><rect x="3348" y="816" width="1" height="1" /><rect x="909" y="105" width="1" height="1" /><rect x="219" y="700" width="1" height="1" /><rect x="3677" y="946" width="1" height="1" /><rect x="2228" y="926" width="1" height="1" /><rect x="1679" y="1050" width="1" height="1" /><rect x="1553" y="442" width="1" height="1" /><rect x="1830" y="421" width="1" height="1" /><rect x="989" y="455" width="1" height="1" /><rect x="2736" y="109" width="1" height="1" /><rect x="285" y="410" width="1" height="1" /><rect x="1614" y="421" width="1" height="1" /><rect x="1621" y="650" width="1" height="1" /><rect x="99" y="386" width="1" height="1" /><rect x="3331" y="733" width="1" height="1" /><rect x="1797" y="799" width="1" height="1" /><rect x="1698" y="105" width="1" height="1" /><rect x="3815" y="1056" width="1" height="1" /><rect x="3705" y="178" width="1" height="1" /><rect x="4016" y="887" width="1" height="1" /><rect x="29" y="732" width="1" height="1" /><rect x="1157" y="593" width="1" height="1" /><rect x="2497" y="665" width="1" height="1" /><rect x="3611" y="153" width="1" height="1" /><rect x="3512" y="566" width="1" height="1" /><rect x="2912" y="323" width="1" height="1" /><rect x="3692" y="44" width="1" height="1" /><rect x="902" y="755" width="1" height="1" /><rect x="3574" y="311" width="1" height="1" /><rect x="426" y="611" width="1" height="1" /><rect x="4036" y="556" width="1" height="1" /><rect x="4452" y="585" width="1" height="1" /><rect x="2852" y="556" width="1" height="1" /><rect x="2011" y="887" width="1" height="1" /><rect x="1579" y="405" width="1" height="1" /><rect x="158" y="464" width="1" height="1" /><rect x="3764" y="464" width="1" height="1" /><rect x="637" y="281" width="1" height="1" /><rect x="666" y="960" width="1" height="1" /><rect x="1301" y="277" width="1" height="1" /><rect x="1418" y="970" width="1" height="1" /><rect x="3176" y="581" width="1" height="1" /><rect x="3466" y="555" width="1" height="1" /><rect x="4302" y="72" width="1" height="1" /><rect x="301" y="242" width="1" height="1" /><rect x="1269" y="1016" width="1" height="1" /><rect x="967" y="739" width="1" height="1" /><rect x="2136" y="58" width="1" height="1" /><rect x="234" y="478" width="1" height="1" /><rect x="2111" y="791" width="1" height="1" /><rect x="4271" y="61" width="1" height="1" /><rect x="3226" y="532" width="1" height="1" /><rect x="2726" y="506" width="1" height="1" /><rect x="1560" y="254" width="1" height="1" /><rect x="1626" y="973" width="1" height="1" /><rect x="3719" y="842" width="1" height="1" /><rect x="1183" y="592" width="1" height="1" /><rect x="3778" y="575" width="1" height="1" /><rect x="3641" y="1076" width="1" height="1" /><rect x="3434" y="684" width="1" height="1" /><rect x="2083" y="1070" width="1" height="1" /><rect x="2017" y="276" width="1" height="1" /><rect x="1530" y="921" width="1" height="1" /><rect x="1923" y="529" width="1" height="1" /><rect x="625" y="941" width="1" height="1" /><rect x="591" y="949" width="1" height="1" /><rect x="1776" y="93" width="1" height="1" /><rect x="1514" y="975" width="1" height="1" /><rect x="2684" y="718" width="1" height="1" /><rect x="2848" y="336" width="1" height="1" /><rect x="2388" y="363" width="1" height="1" /><rect x="3526" y="1036" width="1" height="1" /><rect x="269" y="888" width="1" height="1" /><rect x="3433" y="739" width="1" height="1" /><rect x="2081" y="1055" width="1" height="1" /><rect x="3448" y="61" width="1" height="1" /><rect x="175" y="947" width="1" height="1" /><rect x="1416" y="588" width="1" height="1" /><rect x="1714" y="350" width="1" height="1" /><rect x="3896" y="347" width="1" height="1" /><rect x="3087" y="448" width="1" height="1" /><rect x="1926" y="416" width="1" height="1" /><rect x="3814" y="203" width="1" height="1" /><rect x="1956" y="786" width="1" height="1" /><rect x="430" y="75" width="1" height="1" /><rect x="4055" y="637" width="1" height="1" /><rect x="4176" y="816" width="1" height="1" /><rect x="907" y="271" width="1" height="1" /><rect x="4381" y="193" width="1" height="1" /><rect x="1697" y="150" width="1" height="1" /><rect x="1674" y="964" width="1" height="1" /><rect x="2074" y="964" width="1" height="1" /><rect x="892" y="1033" width="1" height="1" /><rect x="925" y="30" width="1" height="1" /><rect x="3291" y="87" width="1" height="1" /><rect x="1254" y="12" width="1" height="1" /><rect x="164" y="25" width="1" height="1" /><rect x="3902" y="476" width="1" height="1" /><rect x="3495" y="390" width="1" height="1" /><rect x="2161" y="199" width="1" height="1" /><rect x="184" y="688" width="1" height="1" /><rect x="2974" y="860" width="1" height="1" /><rect x="3364" y="333" width="1" height="1" /><rect x="4306" y="179" width="1" height="1" /><rect x="4113" y="254" width="1" height="1" /><rect x="2285" y="321" width="1" height="1" /><rect x="1116" y="35" width="1" height="1" /><rect x="334" y="86" width="1" height="1" /><rect x="534" y="703" width="1" height="1" /><rect x="3380" y="126" width="1" height="1" /><rect x="4357" y="988" width="1" height="1" /><rect x="276" y="145" width="1" height="1" /><rect x="581" y="1010" width="1" height="1" /><rect x="3753" y="520" width="1" height="1" /><rect x="356" y="425" width="1" height="1" /><rect x="748" y="464" width="1" height="1" /><rect x="2637" y="731" width="1" height="1" /><rect x="309" y="464" width="1" height="1" /><rect x="2691" y="491" width="1" height="1" /><rect x="2225" y="182" width="1" height="1" /><rect x="749" y="502" width="1" height="1" /><rect x="3827" y="639" width="1" height="1" /><rect x="4075" y="72" width="1" height="1" /><rect x="28" y="5" width="1" height="1" /><rect x="1805" y="299" width="1" height="1" /><rect x="489" y="958" width="1" height="1" /><rect x="214" y="246" width="1" height="1" /><rect x="1758" y="627" width="1" height="1" /><rect x="1793" y="65" width="1" height="1" /><rect x="128" y="94" width="1" height="1" /><rect x="909" y="435" width="1" height="1" /><rect x="1792" y="900" width="1" height="1" /><rect x="3222" y="1027" width="1" height="1" /><rect x="3037" y="302" width="1" height="1" /><rect x="1216" y="140" width="1" height="1" /><rect x="1182" y="746" width="1" height="1" /><rect x="3175" y="83" width="1" height="1" /><rect x="295" y="523" width="1" height="1" /><rect x="2998" y="598" width="1" height="1" /><rect x="1502" y="85" width="1" height="1" /><rect x="24" y="305" width="1" height="1" /><rect x="718" y="1067" width="1" height="1" /><rect x="212" y="619" width="1" height="1" /><rect x="1420" y="657" width="1" height="1" /><rect x="3071" y="597" width="1" height="1" /><rect x="901" y="250" width="1" height="1" /><rect x="930" y="462" width="1" height="1" /><rect x="1838" y="332" width="1" height="1" /><rect x="2959" y="101" width="1" height="1" /><rect x="3610" y="1028" width="1" height="1" /><rect x="506" y="1058" width="1" height="1" /><rect x="3052" y="941" width="1" height="1" /><rect x="1885" y="361" width="1" height="1" /><rect x="333" y="732" width="1" height="1" /><rect x="878" y="558" width="1" height="1" /><rect x="1632" y="1021" width="1" height="1" /><rect x="66" y="313" width="1" height="1" /><rect x="4165" y="245" width="1" height="1" /><rect x="201" y="352" width="1" height="1" /><rect x="4341" y="673" width="1" height="1" /><rect x="3936" y="718" width="1" height="1" /><rect x="1391" y="981" width="1" height="1" /><rect x="1208" y="1004" width="1" height="1" /><rect x="3511" y="678" width="1" height="1" /><rect x="3558" y="1024" width="1" height="1" /><rect x="1936" y="477" width="1" height="1" /><rect x="2457" y="666" width="1" height="1" /><rect x="2211" y="802" width="1" height="1" /><rect x="322" y="385" width="1" height="1" /><rect x="3209" y="832" width="1" height="1" /><rect x="1525" y="487" width="1" height="1" /><rect x="1236" y="575" width="1" height="1" /><rect x="56" y="856" width="1" height="1" /><rect x="320" y="883" width="1" height="1" /><rect x="3687" y="610" width="1" height="1" /><rect x="1922" y="17" width="1" height="1" /><rect x="2497" y="170" width="1" height="1" /><rect x="1385" y="107" width="1" height="1" /><rect x="2496" y="8" width="1" height="1" /><rect x="1715" y="459" width="1" height="1" /><rect x="3181" y="911" width="1" height="1" /><rect x="4281" y="558" width="1" height="1" /><rect x="4264" y="153" width="1" height="1" /><rect x="2637" y="789" width="1" height="1" /><rect x="3372" y="518" width="1" height="1" /><rect x="927" y="899" width="1" height="1" /><rect x="773" y="893" width="1" height="1" /><rect x="3353" y="154" width="1" height="1" /><rect x="753" y="848" width="1" height="1" /><rect x="4392" y="271" width="1" height="1" /><rect x="3063" y="717" width="1" height="1" /><rect x="2905" y="950" width="1" height="1" /><rect x="706" y="30" width="1" height="1" /><rect x="3139" y="850" width="1" height="1" /><rect x="2674" y="817" width="1" height="1" /><rect x="1295" y="105" width="1" height="1" /><rect x="2686" y="25" width="1" height="1" /><rect x="4129" y="74" width="1" height="1" /><rect x="3761" y="398" width="1" height="1" /><rect x="3948" y="907" width="1" height="1" /><rect x="3487" y="410" width="1" height="1" /><rect x="2078" y="832" width="1" height="1" /><rect x="1087" y="823" width="1" height="1" /><rect x="3163" y="125" width="1" height="1" /><rect x="256" y="1000" width="1" height="1" /><rect x="4220" y="631" width="1" height="1" /><rect x="819" y="861" width="1" height="1" /><rect x="3328" y="282" width="1" height="1" /><rect x="60" y="823" width="1" height="1" /><rect x="983" y="57" width="1" height="1" /><rect x="575" y="175" width="1" height="1" /><rect x="2441" y="712" width="1" height="1" /><rect x="3430" y="240" width="1" height="1" /><rect x="4444" y="107" width="1" height="1" /><rect x="2225" y="1022" width="1" height="1" /><rect x="1782" y="826" width="1" height="1" /><rect x="4303" y="953" width="1" height="1" /><rect x="740" y="253" width="1" height="1" /><rect x="3242" y="898" width="1" height="1" /><rect x="4498" y="935" width="1" height="1" /><rect x="891" y="221" width="1" height="1" /><rect x="1019" y="479" width="1" height="1" /><rect x="1953" y="454" width="1" height="1" /><rect x="350" y="321" width="1" height="1" /><rect x="1404" y="444" width="1" height="1" /><rect x="3081" y="356" width="1" height="1" /><rect x="581" y="255" width="1" height="1" /><rect x="3385" y="283" width="1" height="1" /><rect x="541" y="21" width="1" height="1" /><rect x="63" y="801" width="1" height="1" /><rect x="3340" y="643" width="1" height="1" /><rect x="3590" y="505" width="1" height="1" /><rect x="3320" y="268" width="1" height="1" /><rect x="4253" y="707" width="1" height="1" /><rect x="558" y="1002" width="1" height="1" /><rect x="2739" y="290" width="1" height="1" /><rect x="2511" y="161" width="1" height="1" /><rect x="215" y="413" width="1" height="1" /><rect x="2355" y="554" width="1" height="1" /><rect x="2114" y="1051" width="1" height="1" /><rect x="1970" y="605" width="1" height="1" /><rect x="2146" y="207" width="1" height="1" /><rect x="3158" y="297" width="1" height="1" /><rect x="236" y="993" width="1" height="1" /><rect x="3910" y="1024" width="1" height="1" /><rect x="3587" y="444" width="1" height="1" /><rect x="4188" y="64" width="1" height="1" /><rect x="220" y="808" width="1" height="1" /><rect x="1382" y="589" width="1" height="1" /><rect x="3825" y="276" width="1" height="1" /><rect x="2327" y="827" width="1" height="1" /><rect x="3260" y="583" width="1" height="1" /><rect x="2573" y="22" width="1" height="1" /><rect x="731" y="344" width="1" height="1" /><rect x="521" y="245" width="1" height="1" /><rect x="1703" y="788" width="1" height="1" /><rect x="2268" y="69" width="1" height="1" /><rect x="3154" y="720" width="1" height="1" /><rect x="2111" y="663" width="1" height="1" /><rect x="3070" y="987" width="1" height="1" /><rect x="231" y="585" width="1" height="1" /><rect x="2150" y="885" width="1" height="1" /><rect x="1854" y="720" width="1" height="1" /><rect x="659" y="453" width="1" height="1" /><rect x="4370" y="326" width="1" height="1" /><rect x="4072" y="1028" width="1" height="1" /><rect x="3909" y="699" width="1" height="1" /><rect x="3797" y="945" width="1" height="1" /><rect x="4481" y="238" width="1" height="1" /><rect x="3624" y="341" width="1" height="1" /><rect x="867" y="268" width="1" height="1" /><rect x="1264" y="1025" width="1" height="1" /><rect x="3217" y="119" width="1" height="1" /><rect x="2155" y="833" width="1" height="1" /><rect x="3387" y="593" width="1" height="1" /><rect x="2580" y="299" width="1" height="1" /><rect x="1140" y="746" width="1" height="1" /><rect x="657" y="975" width="1" height="1" /><rect x="702" y="104" width="1" height="1" /><rect x="1935" y="8" width="1" height="1" /><rect x="3160" y="644" width="1" height="1" /><rect x="3000" y="491" width="1" height="1" /><rect x="3691" y="670" width="1" height="1" /><rect x="4068" y="671" width="1" height="1" /><rect x="2247" y="1046" width="1" height="1" /><rect x="3814" y="0" width="1" height="1" /><rect x="1226" y="532" width="1" height="1" /><rect x="4022" y="291" width="1" height="1" /><rect x="3367" y="114" width="1" height="1" /><rect x="631" y="174" width="1" height="1" /><rect x="156" y="947" width="1" height="1" /><rect x="2703" y="80" width="1" height="1" /><rect x="124" y="816" width="1" height="1" /><rect x="2133" y="1059" width="1" height="1" /><rect x="2387" y="367" width="1" height="1" /><rect x="3157" y="806" width="1" height="1" /><rect x="3882" y="87" width="1" height="1" /><rect x="1075" y="268" width="1" height="1" /><rect x="2422" y="454" width="1" height="1" /><rect x="827" y="133" width="1" height="1" /><rect x="2329" y="42" width="1" height="1" /><rect x="3530" y="866" width="1" height="1" /><rect x="3417" y="677" width="1" height="1" /><rect x="604" y="908" width="1" height="1" /><rect x="1612" y="1052" width="1" height="1" /><rect x="1299" y="417" width="1" height="1" /><rect x="42" y="690" width="1" height="1" /><rect x="3529" y="517" width="1" height="1" /><rect x="4116" y="1039" width="1" height="1" /><rect x="1155" y="863" width="1" height="1" /><rect x="3119" y="553" width="1" height="1" /><rect x="3691" y="599" width="1" height="1" /><rect x="2995" y="763" width="1" height="1" /><rect x="3680" y="443" width="1" height="1" /><rect x="1966" y="5" width="1" height="1" /><rect x="3049" y="707" width="1" height="1" /><rect x="2793" y="60" width="1" height="1" /><rect x="3820" y="72" width="1" height="1" /><rect x="201" y="1024" width="1" height="1" /><rect x="1792" y="121" width="1" height="1" /><rect x="1501" y="314" width="1" height="1" /><rect x="813" y="953" width="1" height="1" /><rect x="1182" y="672" width="1" height="1" /><rect x="625" y="824" width="1" height="1" /><rect x="2818" y="40" width="1" height="1" /><rect x="3672" y="938" width="1" height="1" /><rect x="3012" y="822" width="1" height="1" /><rect x="613" y="1022" width="1" height="1" /><rect x="2448" y="565" width="1" height="1" /><rect x="968" y="394" width="1" height="1" /><rect x="3077" y="864" width="1" height="1" /><rect x="3602" y="480" width="1" height="1" /><rect x="2168" y="782" width="1" height="1" /><rect x="1860" y="743" width="1" height="1" /><rect x="3809" y="892" width="1" height="1" /><rect x="2869" y="902" width="1" height="1" /><rect x="1994" y="63" width="1" height="1" /><rect x="3940" y="982" width="1" height="1" /><rect x="675" y="1077" width="1" height="1" /><rect x="2390" y="711" width="1" height="1" /><rect x="49" y="647" width="1" height="1" /><rect x="303" y="816" width="1" height="1" /><rect x="3893" y="630" width="1" height="1" /><rect x="1325" y="363" width="1" height="1" /><rect x="3769" y="33" width="1" height="1" /><rect x="2854" y="267" width="1" height="1" /><rect x="740" y="1018" width="1" height="1" /><rect x="90" y="775" width="1" height="1" /><rect x="2099" y="514" width="1" height="1" /><rect x="904" y="894" width="1" height="1" /><rect x="3437" y="268" width="1" height="1" /><rect x="2766" y="37" width="1" height="1" /><rect x="3232" y="801" width="1" height="1" /><rect x="3776" y="70" width="1" height="1" /><rect x="2331" y="947" width="1" height="1" /><rect x="2384" y="932" width="1" height="1" /><rect x="358" y="669" width="1" height="1" /><rect x="4050" y="556" width="1" height="1" /><rect x="3861" y="553" width="1" height="1" /><rect x="4332" y="365" width="1" height="1" /><rect x="2868" y="1037" width="1" height="1" /><rect x="1036" y="536" width="1" height="1" /><rect x="3595" y="116" width="1" height="1" /><rect x="1702" y="772" width="1" height="1" /><rect x="116" y="585" width="1" height="1" /><rect x="1724" y="528" width="1" height="1" /><rect x="3358" y="1077" width="1" height="1" /><rect x="34" y="31" width="1" height="1" /><rect x="3995" y="993" width="1" height="1" /><rect x="3042" y="411" width="1" height="1" /><rect x="3455" y="197" width="1" height="1" /><rect x="1526" y="896" width="1" height="1" /><rect x="3330" y="318" width="1" height="1" /><rect x="3947" y="679" width="1" height="1" /><rect x="1494" y="379" width="1" height="1" /><rect x="4034" y="994" width="1" height="1" /><rect x="2007" y="12" width="1" height="1" /><rect x="2208" y="982" width="1" height="1" /><rect x="1370" y="444" width="1" height="1" /><rect x="2817" y="464" width="1" height="1" /><rect x="4461" y="296" width="1" height="1" /><rect x="1923" y="268" width="1" height="1" /><rect x="1829" y="356" width="1" height="1" /><rect x="1872" y="833" width="1" height="1" /><rect x="1030" y="604" width="1" height="1" /><rect x="2118" y="258" width="1" height="1" /><rect x="2714" y="207" width="1" height="1" /><rect x="1110" y="438" width="1" height="1" /><rect x="4246" y="256" width="1" height="1" /><rect x="2555" y="579" width="1" height="1" /><rect x="3500" y="743" width="1" height="1" /><rect x="755" y="623" width="1" height="1" /><rect x="2665" y="157" width="1" height="1" /><rect x="2352" y="1067" width="1" height="1" /><rect x="793" y="437" width="1" height="1" /><rect x="1506" y="1" width="1" height="1" /><rect x="767" y="875" width="1" height="1" /><rect x="1362" y="931" width="1" height="1" /><rect x="127" y="654" width="1" height="1" /><rect x="3983" y="276" width="1" height="1" /><rect x="3001" y="592" width="1" height="1" /><rect x="473" y="321" width="1" height="1" /><rect x="2969" y="587" width="1" height="1" /><rect x="3613" y="586" width="1" height="1" /><rect x="774" y="464" width="1" height="1" /><rect x="2633" y="353" width="1" height="1" /><rect x="203" y="439" width="1" height="1" /><rect x="2705" y="811" width="1" height="1" /><rect x="1211" y="482" width="1" height="1" /><rect x="2852" y="285" width="1" height="1" /><rect x="2979" y="671" width="1" height="1" /><rect x="3955" y="596" width="1" height="1" /><rect x="579" y="434" width="1" height="1" /><rect x="3903" y="792" width="1" height="1" /><rect x="612" y="32" width="1" height="1" /><rect x="2089" y="256" width="1" height="1" /><rect x="288" y="513" width="1" height="1" /><rect x="2034" y="47" width="1" height="1" /><rect x="1570" y="987" width="1" height="1" /><rect x="2574" y="689" width="1" height="1" /><rect x="693" y="51" width="1" height="1" /><rect x="89" y="883" width="1" height="1" /><rect x="3539" y="52" width="1" height="1" /><rect x="3180" y="767" width="1" height="1" /><rect x="3969" y="148" width="1" height="1" /><rect x="1842" y="701" width="1" height="1" /><rect x="2151" y="978" width="1" height="1" /><rect x="1986" y="589" width="1" height="1" /><rect x="1821" y="216" width="1" height="1" /><rect x="329" y="695" width="1" height="1" /><rect x="3280" y="673" width="1" height="1" /><rect x="3037" y="525" width="1" height="1" /><rect x="25" y="510" width="1" height="1" /><rect x="3388" y="648" width="1" height="1" /><rect x="4103" y="605" width="1" height="1" /><rect x="3509" y="583" width="1" height="1" /><rect x="4486" y="749" width="1" height="1" /><rect x="3423" y="849" width="1" height="1" /><rect x="3226" y="302" width="1" height="1" /><rect x="3277" y="644" width="1" height="1" /><rect x="3073" y="678" width="1" height="1" /><rect x="566" y="197" width="1" height="1" /><rect x="3393" y="103" width="1" height="1" /><rect x="774" y="371" width="1" height="1" /><rect x="4488" y="53" width="1" height="1" /><rect x="1808" y="771" width="1" height="1" /><rect x="254" y="203" width="1" height="1" /><rect x="3024" y="110" width="1" height="1" /><rect x="1358" y="421" width="1" height="1" /><rect x="2020" y="361" width="1" height="1" /><rect x="3186" y="723" width="1" height="1" /><rect x="2206" y="491" width="1" height="1" /><rect x="2113" y="444" width="1" height="1" /><rect x="2404" y="725" width="1" height="1" /><rect x="2210" y="1008" width="1" height="1" /><rect x="2055" y="717" width="1" height="1" /><rect x="1598" y="421" width="1" height="1" /><rect x="1220" y="503" width="1" height="1" /><rect x="2612" y="798" width="1" height="1" /><rect x="3950" y="450" width="1" height="1" /><rect x="887" y="526" width="1" height="1" /><rect x="1682" y="325" width="1" height="1" /><rect x="4328" y="447" width="1" height="1" /><rect x="344" y="593" width="1" height="1" /><rect x="413" y="1022" width="1" height="1" /><rect x="1237" y="540" width="1" height="1" /><rect x="3703" y="260" width="1" height="1" /><rect x="3656" y="953" width="1" height="1" /><rect x="3182" y="156" width="1" height="1" /><rect x="2297" y="600" width="1" height="1" /><rect x="924" y="756" width="1" height="1" /><rect x="3445" y="757" width="1" height="1" /><rect x="4348" y="938" width="1" height="1" /><rect x="3826" y="339" width="1" height="1" /><rect x="1655" y="1065" width="1" height="1" /><rect x="1527" y="512" width="1" height="1" /><rect x="4480" y="1039" width="1" height="1" /><rect x="3242" y="1001" width="1" height="1" /><rect x="2621" y="108" width="1" height="1" /><rect x="2409" y="611" width="1" height="1" /><rect x="1092" y="119" width="1" height="1" /><rect x="3027" y="606" width="1" height="1" /><rect x="2772" y="555" width="1" height="1" /><rect x="2247" y="774" width="1" height="1" /><rect x="2839" y="185" width="1" height="1" /><rect x="3587" y="424" width="1" height="1" /><rect x="2911" y="1050" width="1" height="1" /><rect x="644" y="534" width="1" height="1" /><rect x="2424" y="956" width="1" height="1" /><rect x="3336" y="1020" width="1" height="1" /><rect x="3589" y="310" width="1" height="1" /><rect x="2494" y="217" width="1" height="1" /><rect x="3053" y="889" width="1" height="1" /><rect x="596" y="897" width="1" height="1" /><rect x="1078" y="457" width="1" height="1" /><rect x="2719" y="1006" width="1" height="1" /><rect x="2976" y="648" width="1" height="1" /><rect x="73" y="699" width="1" height="1" /><rect x="4284" y="101" width="1" height="1" /><rect x="1998" y="466" width="1" height="1" /><rect x="545" y="663" width="1" height="1" /><rect x="921" y="38" width="1" height="1" /><rect x="224" y="803" width="1" height="1" /><rect x="1538" y="292" width="1" height="1" /><rect x="2435" y="506" width="1" height="1" /><rect x="4214" y="1070" width="1" height="1" /><rect x="583" y="800" width="1" height="1" /><rect x="1613" y="463" width="1" height="1" /><rect x="898" y="947" width="1" height="1" /><rect x="4064" y="511" width="1" height="1" /><rect x="1370" y="925" width="1" height="1" /><rect x="1108" y="1036" width="1" height="1" /><rect x="2758" y="595" width="1" height="1" /><rect x="2317" y="1047" width="1" height="1" /><rect x="942" y="446" width="1" height="1" /><rect x="261" y="672" width="1" height="1" /><rect x="91" y="111" width="1" height="1" /><rect x="1878" y="64" width="1" height="1" /><rect x="2875" y="89" width="1" height="1" /><rect x="3582" y="741" width="1" height="1" /><rect x="514" y="880" width="1" height="1" /><rect x="4278" y="1047" width="1" height="1" /><rect x="1772" y="947" width="1" height="1" /><rect x="3981" y="1047" width="1" height="1" /><rect x="3003" y="355" width="1" height="1" /><rect x="4384" y="601" width="1" height="1" /><rect x="2551" y="998" width="1" height="1" /><rect x="1349" y="939" width="1" height="1" /><rect x="2701" y="965" width="1" height="1" /><rect x="2577" y="628" width="1" height="1" /><rect x="3556" y="657" width="1" height="1" /><rect x="2315" y="963" width="1" height="1" /><rect x="2537" y="737" width="1" height="1" /><rect x="3787" y="468" width="1" height="1" /><rect x="3455" y="151" width="1" height="1" /><rect x="2217" y="1066" width="1" height="1" /><rect x="3043" y="976" width="1" height="1" /><rect x="3333" y="798" width="1" height="1" /><rect x="118" y="730" width="1" height="1" /><rect x="1413" y="72" width="1" height="1" /><rect x="2406" y="594" width="1" height="1" /><rect x="2546" y="666" width="1" height="1" /><rect x="4214" y="442" width="1" height="1" /><rect x="3151" y="849" width="1" height="1" /><rect x="3150" y="516" width="1" height="1" /><rect x="3252" y="580" width="1" height="1" /><rect x="3301" y="336" width="1" height="1" /><rect x="4296" y="642" width="1" height="1" /><rect x="2050" y="907" width="1" height="1" /><rect x="2377" y="139" width="1" height="1" /><rect x="3052" y="899" width="1" height="1" /><rect x="2055" y="386" width="1" height="1" /><rect x="396" y="506" width="1" height="1" /><rect x="2054" y="1" width="1" height="1" /><rect x="520" y="708" width="1" height="1" /><rect x="1268" y="253" width="1" height="1" /><rect x="2742" y="1060" width="1" height="1" /><rect x="65" y="388" width="1" height="1" /><rect x="4030" y="970" width="1" height="1" /><rect x="4387" y="1010" width="1" height="1" /><rect x="3643" y="390" width="1" height="1" /><rect x="2876" y="573" width="1" height="1" /><rect x="1436" y="618" width="1" height="1" /><rect x="3296" y="314" width="1" height="1" /><rect x="2951" y="18" width="1" height="1" /><rect x="3144" y="180" width="1" height="1" /><rect x="1903" y="883" width="1" height="1" /><rect x="1280" y="988" width="1" height="1" /><rect x="3976" y="374" width="1" height="1" /><rect x="1150" y="859" width="1" height="1" /><rect x="1876" y="663" width="1" height="1" /><rect x="3576" y="867" width="1" height="1" /><rect x="4159" y="596" width="1" height="1" /><rect x="1569" y="331" width="1" height="1" /><rect x="200" y="940" width="1" height="1" /><rect x="1814" y="942" width="1" height="1" /><rect x="2294" y="786" width="1" height="1" /><rect x="1578" y="247" width="1" height="1" /><rect x="2189" y="940" width="1" height="1" /><rect x="2879" y="881" width="1" height="1" /><rect x="20" y="24" width="1" height="1" /><rect x="3622" y="253" width="1" height="1" /><rect x="1841" y="100" width="1" height="1" /><rect x="3477" y="210" width="1" height="1" /><rect x="2878" y="601" width="1" height="1" /><rect x="869" y="450" width="1" height="1" /><rect x="3397" y="402" width="1" height="1" /><rect x="4368" y="1001" width="1" height="1" /><rect x="1359" y="818" width="1" height="1" /><rect x="3120" y="672" width="1" height="1" /><rect x="3072" y="787" width="1" height="1" /><rect x="2258" y="472" width="1" height="1" /><rect x="2519" y="863" width="1" height="1" /><rect x="4054" y="709" width="1" height="1" /><rect x="3425" y="500" width="1" height="1" /><rect x="1876" y="319" width="1" height="1" /><rect x="1476" y="205" width="1" height="1" /><rect x="3290" y="118" width="1" height="1" /><rect x="2861" y="125" width="1" height="1" /><rect x="2507" y="186" width="1" height="1" /><rect x="1843" y="279" width="1" height="1" /><rect x="4072" y="229" width="1" height="1" /><rect x="3607" y="897" width="1" height="1" /><rect x="2211" y="569" width="1" height="1" /><rect x="2572" y="404" width="1" height="1" /><rect x="3104" y="516" width="1" height="1" /><rect x="684" y="759" width="1" height="1" /><rect x="2811" y="269" width="1" height="1" /><rect x="2062" y="184" width="1" height="1" /><rect x="77" y="509" width="1" height="1" /><rect x="382" y="792" width="1" height="1" /><rect x="3967" y="1068" width="1" height="1" /><rect x="1088" y="190" width="1" height="1" /><rect x="2506" y="810" width="1" height="1" /><rect x="3692" y="713" width="1" height="1" /><rect x="1348" y="91" width="1" height="1" /><rect x="3174" y="725" width="1" height="1" /><rect x="86" y="417" width="1" height="1" /><rect x="4244" y="729" width="1" height="1" /><rect x="2682" y="346" width="1" height="1" /><rect x="3894" y="370" width="1" height="1" /><rect x="3134" y="1013" width="1" height="1" /><rect x="2378" y="942" width="1" height="1" /><rect x="3563" y="982" width="1" height="1" /><rect x="1296" y="826" width="1" height="1" /><rect x="4142" y="218" width="1" height="1" /><rect x="913" y="718" width="1" height="1" /><rect x="1069" y="772" width="1" height="1" /><rect x="1087" y="374" width="1" height="1" /><rect x="777" y="812" width="1" height="1" /><rect x="1178" y="450" width="1" height="1" /><rect x="1596" y="862" width="1" height="1" /><rect x="3006" y="915" width="1" height="1" /><rect x="2381" y="988" width="1" height="1" /><rect x="3220" y="713" width="1" height="1" /><rect x="740" y="1049" width="1" height="1" /><rect x="1007" y="1074" width="1" height="1" /><rect x="687" y="301" width="1" height="1" /><rect x="1630" y="493" width="1" height="1" /><rect x="3728" y="783" width="1" height="1" /><rect x="3641" y="250" width="1" height="1" /><rect x="1147" y="664" width="1" height="1" /><rect x="1896" y="13" width="1" height="1" /><rect x="584" y="564" width="1" height="1" /><rect x="4380" y="148" width="1" height="1" /><rect x="1563" y="971" width="1" height="1" /><rect x="2627" y="924" width="1" height="1" /><rect x="1143" y="591" width="1" height="1" /><rect x="382" y="107" width="1" height="1" /><rect x="1130" y="63" width="1" height="1" /><rect x="266" y="1050" width="1" height="1" /><rect x="2375" y="211" width="1" height="1" /><rect x="4488" y="451" width="1" height="1" /><rect x="2846" y="1009" width="1" height="1" /><rect x="3981" y="551" width="1" height="1" /><rect x="2427" y="952" width="1" height="1" /><rect x="2115" y="323" width="1" height="1" /><rect x="36" y="764" width="1" height="1" /><rect x="352" y="591" width="1" height="1" /><rect x="4030" y="390" width="1" height="1" /><rect x="3606" y="504" width="1" height="1" /><rect x="4294" y="94" width="1" height="1" /><rect x="143" y="455" width="1" height="1" /><rect x="3277" y="580" width="1" height="1" /><rect x="3560" y="75" width="1" height="1" /><rect x="4424" y="601" width="1" height="1" /><rect x="659" y="510" width="1" height="1" /><rect x="865" y="3" width="1" height="1" /><rect x="2704" y="571" width="1" height="1" /><rect x="2391" y="672" width="1" height="1" /><rect x="2985" y="379" width="1" height="1" /><rect x="4050" y="959" width="1" height="1" /><rect x="4267" y="206" width="1" height="1" /><rect x="2468" y="897" width="1" height="1" /><rect x="976" y="616" width="1" height="1" /><rect x="1268" y="1069" width="1" height="1" /><rect x="3003" y="670" width="1" height="1" /><rect x="4500" y="907" width="1" height="1" /><rect x="2022" y="686" width="1" height="1" /><rect x="1721" y="377" width="1" height="1" /><rect x="3032" y="365" width="1" height="1" /><rect x="3463" y="299" width="1" height="1" /><rect x="725" y="154" width="1" height="1" /><rect x="2046" y="937" width="1" height="1" /><rect x="1557" y="521" width="1" height="1" /><rect x="477" y="1043" width="1" height="1" /><rect x="1550" y="515" width="1" height="1" /><rect x="3701" y="431" width="1" height="1" /><rect x="333" y="96" width="1" height="1" /><rect x="265" y="394" width="1" height="1" /><rect x="3673" y="77" width="1" height="1" /><rect x="2315" y="620" width="1" height="1" /><rect x="2410" y="197" width="1" height="1" /><rect x="4305" y="232" width="1" height="1" /><rect x="2614" y="564" width="1" height="1" /><rect x="25" y="155" width="1" height="1" /><rect x="1036" y="897" width="1" height="1" /><rect x="1408" y="306" width="1" height="1" /><rect x="526" y="358" width="1" height="1" /><rect x="29" y="510" width="1" height="1" /><rect x="1254" y="238" width="1" height="1" /><rect x="2781" y="404" width="1" height="1" /><rect x="2445" y="333" width="1" height="1" /><rect x="2934" y="798" width="1" height="1" /><rect x="1901" y="699" width="1" height="1" /><rect x="1126" y="835" width="1" height="1" /><rect x="4366" y="113" width="1" height="1" /><rect x="1647" y="688" width="1" height="1" /><rect x="2644" y="686" width="1" height="1" /><rect x="380" y="863" width="1" height="1" /><rect x="2175" y="807" width="1" height="1" /><rect x="1477" y="667" width="1" height="1" /><rect x="2434" y="732" width="1" height="1" /><rect x="4475" y="252" width="1" height="1" /><rect x="2277" y="408" width="1" height="1" /><rect x="3510" y="401" width="1" height="1" /><rect x="745" y="710" width="1" height="1" /><rect x="4420" y="1052" width="1" height="1" /><rect x="353" y="319" width="1" height="1" /></g></svg>